<?xml version="1.0" encoding="UTF-8" standalone="no"?>
<svg
   xmlns:dc="http://purl.org/dc/elements/1.1/"
   xmlns:cc="http://creativecommons.org/ns#"
   xmlns:rdf="http://www.w3.org/1999/02/22-rdf-syntax-ns#"
   xmlns:svg="http://www.w3.org/2000/svg"
   xmlns="http://www.w3.org/2000/svg"
   viewBox="260 170 350 200"
   height="40"
   width="40"
   xml:space="preserve"
   id="svg2"
   version="1.1"><metadata
     id="metadata8"><rdf:RDF><cc:Work
         rdf:about=""><dc:format>image/svg+xml</dc:format><dc:type
           rdf:resource="http://purl.org/dc/dcmitype/StillImage" /></cc:Work></rdf:RDF></metadata><defs
     id="defs6" /><g
     transform="matrix(1.3333333,0,0,-1.3333333,0,708)"
     id="g10"><g
       transform="scale(0.1)"
       id="g12"><path
         id="path28"
         style="fill:#0f86ac;fill-opacity:1;fill-rule:nonzero;stroke:none"
         d="M 3901.34,4195.25 C 4351.32,3938.89 4456.06,3364 4142.98,2782.38 3867.82,2271.1 3267,2052.74 2819.32,2313.04 c -447.78,260.35 -535.17,986.6 -342.74,1404.53 279.4,606.86 927.59,761.01 1424.76,477.68" /><path
         id="path30"
         style="fill:#ffffff;fill-opacity:1;fill-rule:nonzero;stroke:none"
         d="m 3322.06,2680.43 c -13.7,10.68 -29.1,18.01 -44.6,21.12 -5.28,1.02 -10.7,1.6 -16.05,1.6 -29.27,0 -57.96,-16.1 -76.73,-43.17 -15.68,-22.47 -22.09,-49.32 -17.93,-75.39 2.64,-16.58 8.86,-31 18.04,-41.75 10.31,-12.15 26.09,-21.42 45.64,-27 11.32,-3.13 22.92,-4.8 34.5,-4.8 h 0.03 c 25.25,0 47.97,7.57 65.62,21.9 20.53,16.71 31.71,40.56 31.46,67.11 -0.23,30.98 -15.18,61.07 -39.98,80.38 m 568.84,1073.73 c 88.08,-94.04 115.51,-236.74 100.19,-353.78 -17.5,-133.46 -98.38,-256.95 -232.93,-338.83 -106.71,-64.93 -246.88,-90.84 -384.81,-92.07 -1.1,-21.87 -5.47,-97.2 -7.67,-109.12 -3.24,-17.57 -9.39,-27.05 -16.92,-36.89 -14.81,-19.3 -40.51,-31.77 -66.03,-39.04 -20.29,-5.77 -40.35,-8.25 -54.58,-8.25 -2.41,0 -4.76,0.14 -7.06,0.43 -15,1.7 -31.65,8.74 -41.95,20.23 -10.28,11.49 -16.11,26.02 -17.47,42.48 l -1.15,14.87 c -2.92,12.81 -18.9,661.3 -15.8,649.77 2.31,77.69 127.76,91.25 195.83,77.53 68.21,-13.75 50.94,-96.62 49.1,-198.5 0,0 -3.24,-133.97 -9.53,-275.53 86.83,3.4 155.82,28.15 220.39,60.23 130.4,64.64 199.42,163.79 199.42,309.83 0,146.05 -142.18,309.59 -404.45,309.59 -262.26,0 -374.84,-66.15 -501.83,-171.21 -28.63,-23.69 -50.68,-47.56 -71.54,-63.27 -20.85,-15.71 -76.23,-18.12 -91.08,18.65 -17.89,44.33 15.54,93.75 35.18,117.66 30.84,37.54 106.92,113.15 191.23,157.08 96.57,50.42 214.72,104.7 379.2,108.85 148.81,3.76 383.76,-8.29 553,-199.45" /></g></g></svg>
